HIERARCHY
ROOT SpineBase
{
  OFFSET 0.000000 0.000000 0.000000
  CHANNELS 6 Xposition Yposition Zposition Zrotation Xrotation Yrotation
  JOINT SpineMid
  {
    OFFSET 0.000000 26.462572 0.000000
    CHANNELS 3 Zrotation Xrotation Yrotation
    JOINT SpineShoulder
    {
      OFFSET -0.279548 19.898173 -0.664323
      CHANNELS 3 Zrotation Xrotation Yrotation
      JOINT Neck
      {
        OFFSET -0.110376 6.669118 -0.543304
        CHANNELS 3 Zrotation Xrotation Yrotation
        JOINT Head
        {
          OFFSET -2.376682 11.310648 2.360342
          CHANNELS 3 Zrotation Xrotation Yrotation
          End Site
          {
            OFFSET 0 0 0
          }
        }
      }
      JOINT ShoulderLeft
      {
        OFFSET -13.736060 -2.871257 2.366615
        CHANNELS 3 Zrotation Xrotation Yrotation
        JOINT ElbowLeft
        {
          OFFSET -1.063446 -23.222326 0.937784
          CHANNELS 3 Zrotation Xrotation Yrotation
          JOINT WristLeft
          {
            OFFSET -2.159844 -19.984324 -5.249201
            CHANNELS 3 Zrotation Xrotation Yrotation
            JOINT HandLeft
            {
              OFFSET -0.080432 -7.392441 -0.708200
              CHANNELS 3 Zrotation Xrotation Yrotation
              JOINT HandTipLeft
              {
                OFFSET -0.962546 -5.669738 -2.004494
                CHANNELS 3 Zrotation Xrotation Yrotation
                End Site
                {
                  OFFSET 0 0 0
                }
              }
              JOINT ThumbLeft
              {
                OFFSET -3.095121 0.788976 -2.292784
                CHANNELS 3 Zrotation Xrotation Yrotation
                End Site
                {
                  OFFSET 0 0 0
                }
              }
            }
          }
        }
      }
      JOINT ShoulderRight
      {
        OFFSET 11.870346 -1.432840 -6.380046
        CHANNELS 3 Zrotation Xrotation Yrotation
        JOINT ElbowRight
        {
          OFFSET 1.973087 -23.772518 -3.395739
          CHANNELS 3 Zrotation Xrotation Yrotation
          JOINT WristRight
          {
            OFFSET 0.287843 -17.439067 -4.256921
            CHANNELS 3 Zrotation Xrotation Yrotation
            JOINT HandRight
            {
              OFFSET -1.143547 -7.300163 -0.446866
              CHANNELS 3 Zrotation Xrotation Yrotation
              JOINT HandTipRight
              {
                OFFSET -0.218585 -5.499939 -1.409263
                CHANNELS 3 Zrotation Xrotation Yrotation
                End Site
                {
                  OFFSET 0 0 0
                }
              }
              JOINT ThumbRight
              {
                OFFSET -1.583910 0.897723 2.025508
                CHANNELS 3 Zrotation Xrotation Yrotation
                End Site
                {
                  OFFSET 0 0 0
                }
              }
            }
          }
        }
      }
    }
  }
  JOINT HipLeft
  {
    OFFSET -5.711258 0.482813 -1.569827
    CHANNELS 3 Zrotation Xrotation Yrotation
    JOINT KneeLeft
    {
      OFFSET 1.498117 -31.151153 -3.042802
      CHANNELS 3 Zrotation Xrotation Yrotation
      JOINT AnkleLeft
      {
        OFFSET 3.596924 -33.239960 -0.366340
        CHANNELS 3 Zrotation Xrotation Yrotation
        JOINT FootLeft
        {
          OFFSET -1.351985 -2.295920 -9.585217
          CHANNELS 3 Zrotation Xrotation Yrotation
          End Site
          {
            OFFSET 0 0 0
          }
        }
      }
    }
  }
  JOINT HipRight
  {
    OFFSET 5.228750 1.820127 -4.348010
    CHANNELS 3 Zrotation Xrotation Yrotation
    JOINT KneeRight
    {
      OFFSET 3.771384 -24.292325 -11.583143
      CHANNELS 3 Zrotation Xrotation Yrotation
      JOINT AnkleRight
      {
        OFFSET 1.857458 -41.160612 5.420730
        CHANNELS 3 Zrotation Xrotation Yrotation
        JOINT FootRight
        {
          OFFSET -3.572353 -4.899062 -3.133264
          CHANNELS 3 Zrotation Xrotation Yrotation
          End Site
          {
            OFFSET 0 0 0
          }
        }
      }
    }
  }
}
MOTION
Frames: 15
Frame Time: 0.033333
30.093713 71.382224 364.594824 -0.968830 7.814639 13.012589 -0.221135 0.783719 -12.890689 0.607588 -0.033709 0.050724 5.443886 4.631456 1.856529 0.000000 0.000000 0.000000 -0.512823 -3.773520 -0.426800 -7.145798 1.149817 1.599563 -1.380893 3.785108 -0.460043 13.292503 -3.667104 -1.820058 0.000000 0.000000 0.000000 0.000000 0.000000 0.000000 20.113084 30.027439 -3.266441 176.353315 74.915944 156.958494 -37.942362 47.694803 179.837201 -41.585538 3.760774 -126.476582 0.000000 0.000000 0.000000 0.000000 0.000000 0.000000 -0.605226 -10.363999 -13.161096 0.443728 -0.097859 -0.101865 -3.563842 8.214980 5.581941 0.000000 0.000000 0.000000 -3.519672 -21.638723 -16.343532 -0.730429 18.891582 2.970713 6.428159 -25.668081 14.625660 0.000000 0.000000 0.000000
30.058879 71.266234 364.575268 -0.753054 8.001688 13.160601 0.094564 0.637586 -13.012782 0.453864 0.073043 0.056509 2.007312 3.663830 2.188543 0.000000 0.000000 0.000000 -0.889570 -3.853046 -0.498295 -7.063883 0.483208 1.580586 -0.454369 3.470907 -0.586764 12.936020 -4.248333 -1.820104 0.000000 0.000000 0.000000 0.000000 0.000000 0.000000 19.922049 36.697153 -3.964400 -138.861202 79.809105 102.873099 -38.276464 31.437402 -138.259585 -22.593031 17.195743 150.803693 0.000000 0.000000 0.000000 0.000000 0.000000 0.000000 -0.808281 -10.485591 -13.336634 0.390763 -0.294968 -0.111058 -5.637820 11.275329 10.384242 0.000000 0.000000 0.000000 -3.789289 -21.899047 -16.596706 -0.937633 18.988101 3.064240 5.430602 -23.182610 12.453787 0.000000 0.000000 0.000000
30.045114 71.096618 364.562841 -0.505567 7.930594 13.159815 0.206415 0.333904 -13.010544 0.085915 0.394448 0.023900 2.917658 5.800279 2.401349 0.000000 0.000000 0.000000 -1.100823 -3.923715 -0.526402 -6.518555 0.089629 1.535242 -0.497390 3.271507 -0.590145 13.066732 -3.554406 -2.044940 0.000000 0.000000 0.000000 0.000000 0.000000 0.000000 17.841714 41.930544 -3.583604 -100.364019 68.367072 46.788390 -33.270637 18.899670 -102.458036 -5.922098 10.363176 87.726763 0.000000 0.000000 0.000000 0.000000 0.000000 0.000000 -1.051241 -10.439531 -13.375095 0.473353 -0.370664 -0.125592 -5.566994 10.708905 10.413170 0.000000 0.000000 0.000000 -4.079707 -21.927351 -16.664071 -0.892484 19.224950 3.083097 9.702750 -28.663160 16.958693 0.000000 0.000000 0.000000
30.032351 70.956252 364.557635 -0.231458 7.626921 13.202752 0.176431 -0.392707 -13.066218 -0.157411 0.663389 0.008923 4.006645 11.933991 3.015320 0.000000 0.000000 0.000000 -1.569386 -3.661501 -0.548950 -5.758332 0.301397 1.506924 -1.260774 4.145106 -0.433883 14.514050 -5.500735 -1.932443 0.000000 0.000000 0.000000 0.000000 0.000000 0.000000 14.047283 47.992384 -2.403002 -102.039070 56.633197 29.590660 -23.003947 12.206539 -77.913132 -1.582950 -0.546055 56.977283 0.000000 0.000000 0.000000 0.000000 0.000000 0.000000 -1.298762 -10.150077 -13.456530 0.600404 -0.467261 -0.145501 -5.438861 9.347382 10.809105 0.000000 0.000000 0.000000 -4.440059 -21.689660 -16.738228 -0.656075 19.607379 3.034855 8.132307 -27.289830 15.551349 0.000000 0.000000 0.000000
30.031526 70.831653 364.544654 -0.061070 7.455475 13.382125 0.070707 -0.452035 -13.263892 -0.355018 0.763857 -0.013317 5.103170 13.995767 3.089552 0.000000 0.000000 0.000000 -1.955674 -3.995810 -0.581180 -4.748483 0.554968 1.470738 -1.413115 5.924923 -0.264036 15.228459 -5.487423 -2.193983 0.000000 0.000000 0.000000 0.000000 0.000000 0.000000 9.854295 57.572575 -0.264743 -98.431918 46.725219 4.174669 -16.993641 8.977633 -59.120773 -10.320738 -18.695724 12.019026 0.000000 0.000000 0.000000 0.000000 0.000000 0.000000 -1.569657 -10.017716 -13.669147 0.834706 -0.411016 -0.161890 -2.657402 3.333928 4.628545 0.000000 0.000000 0.000000 -4.787274 -21.707603 -16.990017 -0.629195 19.964026 3.046352 3.100827 -19.164271 9.036314 0.000000 0.000000 0.000000
30.017423 70.764389 364.530453 0.025457 7.359204 13.610653 -0.090411 -0.210313 -13.514757 -0.492979 0.831469 -0.036277 5.817514 13.431271 2.961496 0.000000 0.000000 0.000000 -1.834273 -4.675866 -0.557807 -4.100918 1.048874 1.388424 -2.196974 6.694988 -0.074216 14.895183 -5.386711 -2.101390 0.000000 0.000000 0.000000 0.000000 0.000000 0.000000 8.267008 67.052350 1.072170 -95.285818 35.790014 -23.652889 -24.219156 11.777374 -46.256559 1.324253 -20.848193 3.267027 0.000000 0.000000 0.000000 0.000000 0.000000 0.000000 -1.760248 -9.916510 -13.916286 1.107101 -0.259224 -0.166111 0.075722 -5.293807 -3.479561 0.000000 0.000000 0.000000 -4.932303 -21.355405 -17.165516 -0.474909 19.724739 2.957755 -2.535944 -5.088724 0.389404 0.000000 0.000000 0.000000
29.985790 70.784278 364.523096 -0.039916 7.372739 13.776844 -0.363563 0.319355 -13.709468 -0.616546 0.872624 -0.072374 6.689193 10.163759 2.592519 0.000000 0.000000 0.000000 -1.448993 -5.247749 -0.523848 -3.313133 0.986154 1.270893 -3.636041 7.996055 0.238823 15.130879 -3.917190 -2.307192 0.000000 0.000000 0.000000 0.000000 0.000000 0.000000 19.094286 74.872379 -6.755177 -91.911786 18.094220 -49.059721 -77.445800 9.225028 -78.486260 25.688679 20.475515 31.887028 0.000000 0.000000 0.000000 0.000000 0.000000 0.000000 -1.771453 -9.938513 -14.080064 1.195762 -0.188983 -0.166820 1.116877 -5.831487 -9.930568 0.000000 0.000000 0.000000 -5.188228 -21.811577 -17.441796 -0.454092 20.319274 2.990847 -6.467921 16.191385 -10.370714 0.000000 0.000000 0.000000
29.933656 70.909280 364.512547 -0.150562 7.480167 14.025631 -0.628700 0.976873 -13.981492 -0.537750 0.776082 -0.087286 6.127827 5.284711 2.233243 0.000000 0.000000 0.000000 -1.258023 -5.352813 -0.536049 -2.332596 0.280609 1.123271 -5.591724 8.357564 0.575051 15.655086 -3.045669 -2.330494 0.000000 0.000000 0.000000 0.000000 0.000000 0.000000 38.286216 81.205509 -23.775135 -90.086383 2.931446 -63.147340 -140.612697 -31.940735 127.474740 -36.234512 -43.036559 125.082188 0.000000 0.000000 0.000000 0.000000 0.000000 0.000000 -1.726106 -10.023857 -14.318937 1.173620 -0.134177 -0.158582 2.067986 -16.674286 -13.669335 0.000000 0.000000 0.000000 -5.388540 -22.126124 -17.746650 -0.348026 20.628965 2.966148 -8.152369 26.011418 -14.324864 0.000000 0.000000 0.000000
29.886631 71.225282 364.521799 -0.105381 7.660682 14.110431 -0.402838 1.389534 -14.048508 -0.043175 0.478473 -0.013056 2.343916 1.578053 2.045809 0.000000 0.000000 0.000000 -2.419974 -5.085825 -0.757467 -0.996836 -0.317034 0.967704 -7.051660 7.342564 0.755760 17.875213 -3.169528 -2.656320 0.000000 0.000000 0.000000 0.000000 0.000000 0.000000 56.786282 83.300051 -42.180233 -83.420817 -4.955634 -63.633314 -162.539204 -40.072193 117.100474 10.557079 -59.929666 103.746506 0.000000 0.000000 0.000000 0.000000 0.000000 0.000000 -1.857036 -10.178382 -14.417668 1.104225 0.042156 -0.142206 2.143106 -15.774290 -13.902245 0.000000 0.000000 0.000000 -5.771223 -22.543762 -17.912349 -0.140289 21.054238 2.914908 -10.075703 29.368760 -14.620206 0.000000 0.000000 0.000000
29.848332 71.246265 364.504545 0.004130 7.757077 14.055408 -0.082482 1.504534 -13.969915 0.329940 0.072904 0.057217 -1.834795 -0.417842 1.940902 0.000000 0.000000 0.000000 -3.280239 -4.112931 -0.903607 -0.592128 -1.283815 0.922036 -7.128919 5.993191 0.675273 18.478917 -3.443986 -2.805406 0.000000 0.000000 0.000000 0.000000 0.000000 0.000000 53.975842 83.171354 -40.342797 -64.354472 -5.062485 -49.926722 -170.139105 -27.134790 125.702976 -24.410153 -60.079538 102.636506 0.000000 0.000000 0.000000 0.000000 0.000000 0.000000 -1.924959 -10.266581 -14.376471 0.915167 0.265673 -0.110097 2.434037 -22.874093 -9.849002 0.000000 0.000000 0.000000 -6.020597 -22.733736 -17.897052 -0.052968 21.216764 2.883558 -2.980283 28.855478 -19.911997 0.000000 0.000000 0.000000
29.806502 71.058596 364.498025 0.105118 7.909288 13.903067 0.227719 1.812575 -13.796876 0.395122 -0.191456 0.083248 -5.450404 -3.484878 1.543501 0.000000 0.000000 0.000000 -3.474297 -3.372801 -0.974678 -1.041202 -2.845788 0.998166 -6.267351 5.798347 0.508628 20.405549 -4.496619 -3.165085 0.000000 0.000000 0.000000 0.000000 0.000000 0.000000 29.549476 78.386080 -17.084042 -49.571117 8.517197 -34.528530 -162.128187 -7.076486 145.193690 -40.246040 -58.078883 144.159774 0.000000 0.000000 0.000000 0.000000 0.000000 0.000000 -1.849202 -10.387170 -14.225607 0.745677 0.227400 -0.089275 2.600301 -24.637438 -1.724444 0.000000 0.000000 0.000000 -5.962408 -22.766580 -17.746583 -0.218265 20.996483 2.932833 -3.516380 25.751998 -17.755027 0.000000 0.000000 0.000000
29.792495 70.665272 364.497961 0.244942 7.858025 13.717770 0.383510 1.417711 -13.598962 0.356750 -0.526743 0.090384 -8.935698 -2.605637 1.955237 0.000000 0.000000 0.000000 -3.562843 -1.705449 -0.959322 -1.489677 -4.020880 1.022897 -5.576653 5.305905 0.355296 19.544395 -5.860101 -2.747127 0.000000 0.000000 0.000000 0.000000 0.000000 0.000000 1.128198 79.708048 6.391866 -38.909863 12.185018 -27.454677 -158.161714 -6.307048 155.894563 -52.688052 -53.199119 121.532706 0.000000 0.000000 0.000000 0.000000 0.000000 0.000000 -1.681790 -10.288381 -14.033618 0.481040 0.038112 -0.071856 1.559039 -20.325677 11.139833 0.000000 0.000000 0.000000 -5.779326 -22.421031 -17.498489 -0.370362 20.451137 2.956730 -5.394295 18.163134 -12.099950 0.000000 0.000000 0.000000
29.794226 70.153165 364.518564 0.355206 7.574172 13.338952 0.370464 0.819659 -13.219610 0.122347 -0.385989 0.062160 -10.639818 0.094327 2.879215 0.000000 0.000000 0.000000 -3.452709 -0.591715 -0.902163 -1.938254 -4.490790 1.066797 -5.197652 5.184994 0.258765 18.955379 -6.258023 -2.523661 0.000000 0.000000 0.000000 0.000000 0.000000 0.000000 -20.033292 75.274509 22.943319 -40.854351 26.312845 -20.313608 -142.133624 -0.726688 157.676626 -76.448662 -43.112487 132.513402 0.000000 0.000000 0.000000 0.000000 0.000000 0.000000 -1.361373 -10.018990 -13.636554 0.254270 -0.102597 -0.049800 2.151342 -22.780211 15.170984 0.000000 0.000000 0.000000 -5.459169 -21.900581 -17.021852 -0.461926 20.072699 2.971087 -5.013403 1.460505 -2.466638 0.000000 0.000000 0.000000
29.830248 69.668564 364.531135 0.450833 7.153715 13.069797 0.220149 0.095684 -12.962312 0.179285 -0.099819 0.075042 -11.860933 4.367634 4.234676 0.000000 0.000000 0.000000 -3.501577 0.392299 -0.855195 -2.642795 -4.488484 1.134415 -4.469863 5.340207 0.124929 19.761447 -7.633504 -2.380963 0.000000 0.000000 0.000000 0.000000 0.000000 0.000000 -22.965401 67.326820 22.254670 -55.909326 44.192898 -4.508698 -119.969887 5.082799 155.686029 -49.058136 -40.985686 114.676679 0.000000 0.000000 0.000000 0.000000 0.000000 0.000000 -1.106270 -9.582236 -13.352657 0.152952 -0.234983 -0.038296 4.457460 -31.031317 11.143007 0.000000 0.000000 0.000000 -5.147466 -21.183912 -16.634692 -0.525131 19.778507 2.968580 -3.215210 -15.143621 8.288589 0.000000 0.000000 0.000000
29.898188 69.260918 364.521005 0.516581 6.774626 12.973056 0.166892 -0.168426 -12.873325 0.203516 0.260392 0.082391 -12.842632 6.156763 4.927325 0.000000 0.000000 0.000000 -3.604785 0.585336 -0.846986 -3.391146 -4.202994 1.243585 -3.253890 6.876706 0.020832 19.262096 -10.328589 -1.623666 0.000000 0.000000 0.000000 0.000000 0.000000 0.000000 -25.007738 62.042562 21.756336 -64.592483 49.048989 8.054153 -115.265000 1.775097 155.174547 -37.173877 -47.375947 77.058331 0.000000 0.000000 0.000000 0.000000 0.000000 0.000000 -1.000742 -9.191833 -13.251217 0.207193 -0.195237 -0.029218 4.180112 -32.318741 5.242045 0.000000 0.000000 0.000000 -5.180194 -20.810392 -16.484744 -0.393532 19.748226 2.904310 -2.901006 -20.206991 12.336491 0.000000 0.000000 0.000000
